<svg xmlns="http://www.w3.org/2000/svg" xmlns:xlink="http://www.w3.org/1999/xlink" viewBox="0 0 217.13 189.9"><defs><style>.cls-1{fill:none;}.cls-2{clip-path:url(#clip-path);}.cls-3{fill:#f4e7c5;}</style><clipPath id="clip-path" transform="translate(0 -5.15)"><rect class="cls-1" x="52.85" width="104" height="194.83" transform="translate(209.7 194.83) rotate(-180)"/></clipPath></defs><title>calcumon</title><g id="Layer_2" data-name="Layer 2"><g id="Layer_1-2" data-name="Layer 1"><g class="cls-2"><image width="585" height="1257" transform="translate(52.6 40.38) scale(0.1 0.1)" xlink:href="../../../../../../Downloads/Assets/Characters/cutie3.png"/><image width="752" height="905" transform="translate(92.68 2.53) scale(0.17 0.16)" xlink:href="../../../../../../Downloads/Assets/Characters/cutie1.png"/><image width="517" height="1062" transform="translate(86.73 68.44) scale(0.12 0.11)" xlink:href="../../../../../../Downloads/Assets/Characters/cutie2.png"/></g><path class="cls-3" d="M23.77,44.78v16a.75.75,0,0,0,1.5,0v-16a.75.75,0,0,0-1.5,0Z" transform="translate(0 -5.15)"/><path class="cls-3" d="M15.85,53.56H33.2a.75.75,0,0,0,0-1.5H15.85a.75.75,0,0,0,0,1.5Z" transform="translate(0 -5.15)"/><path class="cls-3" d="M60.85,6.65H77.2a.75.75,0,0,0,0-1.5H60.85a.75.75,0,0,0,0,1.5Z" transform="translate(0 -5.15)"/><path class="cls-3" d="M60.07,176.06,49.92,188.49c-.61.74.45,1.81,1.06,1.06l10.15-12.43c.6-.74-.45-1.81-1.06-1.06Z" transform="translate(0 -5.15)"/><path class="cls-3" d="M48.27,177.85l13.44,11c.74.61,1.81-.45,1.06-1.06l-13.43-11c-.75-.61-1.81.45-1.07,1.06Z" transform="translate(0 -5.15)"/><path class="cls-3" d="M.72,121.27H16.85a.75.75,0,0,0,0-1.5H.72a.75.75,0,0,0,0,1.5Z" transform="translate(0 -5.15)"/><path class="cls-3" d="M8.79,117.08a1.5,1.5,0,0,0,0-3,1.5,1.5,0,0,0,0,3Z" transform="translate(0 -5.15)"/><path class="cls-3" d="M8.79,127a1.5,1.5,0,0,0,0-3,1.5,1.5,0,0,0,0,3Z" transform="translate(0 -5.15)"/></g></g></svg>