<svg xmlns="http://www.w3.org/2000/svg" xmlns:xlink="http://www.w3.org/1999/xlink" viewBox="0 0 1005 333.43"><defs><style>.cls-1,.cls-25,.cls-29,.cls-51{fill:none;}.cls-2{fill:#f4e7c5;}.cls-3{fill:url(#linear-gradient);}.cls-4{fill:url(#linear-gradient-2);}.cls-5{fill:#866f6c;}.cls-6{fill:#e1b66f;}.cls-7{fill:#719084;}.cls-8{fill:#92b2a6;}.cls-9{fill:#e8bd79;}.cls-10{fill:#535460;}.cls-11{fill:#6b6b7a;}.cls-12{fill:#39383c;}.cls-13{fill:#939394;}.cls-14{fill:#705f5d;}.cls-15{fill:#c8a25b;}.cls-16{fill:#cf7774;}.cls-17{fill:#d07774;}.cls-18{fill:#999;}.cls-19{fill:#4c4b49;}.cls-20{fill:#ccc;}.cls-21{fill:#f9f9f9;}.cls-22{font-size:8px;font-family:Bungee-Regular, Bungee;}.cls-23{letter-spacing:-0.01em;}.cls-24{letter-spacing:-0.01em;}.cls-25{stroke:#333;stroke-width:0.75px;}.cls-25,.cls-29,.cls-51{stroke-miterlimit:10;}.cls-26{fill:#333;}.cls-27{fill:#d5634b;}.cls-28{fill:#2c2a49;}.cls-29{stroke:#2c2a49;stroke-width:0.25px;}.cls-30{fill:#98bf63;}.cls-31{fill:#fff;}.cls-32{fill:#a2c567;}.cls-33{fill:#f3f3ff;}.cls-34{fill:#ef765e;}.cls-35{fill:#51b095;}.cls-36{fill:#3c856e;}.cls-37{fill:#43947c;opacity:0.94;}.cls-38{fill:#e0a27d;}.cls-39{fill:#efd3c8;}.cls-40{fill:#e6b298;}.cls-41{clip-path:url(#clip-path);}.cls-42{clip-path:url(#clip-path-2);}.cls-43{fill:#d0eaf1;}.cls-44{fill:#8f7f72;}.cls-45{fill:#a49283;}.cls-46{fill:#b1a296;}.cls-47{fill:#f1bf45;}.cls-48{fill:#dc3a31;}.cls-49{fill:#3f8eca;}.cls-50{fill:#ccc7c1;}.cls-51{stroke:#cbc5bf;stroke-width:5px;}.cls-52{fill:#cbc5bf;}</style><linearGradient id="linear-gradient" x1="780" y1="142.46" x2="945" y2="142.46" gradientUnits="userSpaceOnUse"><stop offset="0" stop-color="#bababa" stop-opacity="0.5"/><stop offset="1" stop-color="#fff" stop-opacity="0"/></linearGradient><linearGradient id="linear-gradient-2" x1="879.73" y1="87.5" x2="1005" y2="87.5" gradientUnits="userSpaceOnUse"><stop offset="0" stop-color="#363636" stop-opacity="0.5"/><stop offset="1" stop-color="gray" stop-opacity="0"/></linearGradient><clipPath id="clip-path"><polygon class="cls-1" points="45.08 225.82 40.27 227.04 37.75 217.72 42.55 216.5 45.08 225.82"/></clipPath><clipPath id="clip-path-2"><polygon class="cls-1" points="45.08 225.82 49.89 224.6 47.36 215.28 42.55 216.5 45.08 225.82"/></clipPath></defs><title>banner</title><g id="Layer_2" data-name="Layer 2"><g id="assets"><polygon class="cls-2" points="1000 328 0 328 0 148 783.32 148 1000 148 1000 328"/><rect class="cls-2" x="655" width="345" height="167" rx="21.5"/><path class="cls-3" d="M780,110l97-51c3-3.19,8.24-7.77,14-7,5.51.73,8.45,6,12,11,16.35,23.21,31.47,22.47,34,38,.55,3.35.75,9-2.5,16.5A11.11,11.11,0,0,1,941,120c16.53,14.28-22.49,84.63-39,113L796,206Z"/><path class="cls-4" d="M885,47a5.15,5.15,0,0,0-4,1c-2.14,2-1.19,6.43,0,9,3.65,7.86,12.94,5.44,17,13,1.38,2.57.15,2.55,2,12,1.69,8.62,2.59,8,3,12,1,9.69-4.36,12.42-4,24,0,1.64.29,9.32,3,10,2.24.56,3.82-4.25,8-7,6.32-4.16,12,.72,25,2,3.15.31,29,2.59,39-8,1-1.09,4.2-4.74,7-4,2.43.65,2.83,4.14,4,4,1.92-.23,3.47-10,4-17,.17-2.24.27-4.64,2-6s3.34-.35,6-1c4.16-1,7.92-5.33,8-9,.1-4.34-5-7.66-7-9C982.64,62.91,901.11,49.59,885,47Z"/><path class="cls-5" d="M656.5,297.5h-5c-1.56,6.89-3,9.72-4,11a3.52,3.52,0,0,0-1,2c-.1,1.43,1.1,2.14,1,4,0,.59-.17.77,0,1,.46.62,1.85-.22,4,0a7.19,7.19,0,0,1,3,1,6.94,6.94,0,0,1,2,1.89Z"/><path class="cls-6" d="M652.5,294.5c1.5,1.21,1.54,4,1,6-1.13,4.11-4.82,4.56-5,8a25.66,25.66,0,0,0,0,4,5.32,5.32,0,0,1,0,2,5.45,5.45,0,0,1-1,2c-4.18,5.19-26,12-26,12-9.49,3-9.57,3.5-11,3-6.81-2.38-4-14.26-11-37-2.89-9.36-5.67-14.82-7-26-1.5-12.63.77-16.37,3-18,2-1.44,5.48-2.36,8-1a7.13,7.13,0,0,1,3,4c1.48,3.76,4.55,11.26,6,14,1,2,6.7,6,18,14a98.19,98.19,0,0,0,9,6,30.24,30.24,0,0,1,5,3c1.89,1.49,2.32,2.32,4,3C650.6,294.34,651.45,293.65,652.5,294.5Z"/><path class="cls-7" d="M657,294a24.94,24.94,0,0,0-2,5,28.64,28.64,0,0,0,0,14,39.49,39.49,0,0,0,4,11,221.73,221.73,0,0,0,44-1c21-2.59,31.46-3.88,43-10,11.92-6.32,17.54-13.34,34-19a96.39,96.39,0,0,1,16-4,217.55,217.55,0,0,1,34,9c16.19,5.72,21.63,9.79,33,12,8.78,1.7,21.82,2.43,39-3,1.21-3.65,9.25-29.16-5-48-10.18-13.46-26.24-16.25-42-19a111.57,111.57,0,0,0-43,1c-14,4.12-24.92,8.2-32,11-24.47,9.66-54,24.29-70,29-6.06,1.78-14,4-14,4-3.56,1-6,1.66-11,3-15,4.05-16.87,4.37-19,4a15,15,0,0,0-6,0A14.26,14.26,0,0,0,657,294Z"/><path class="cls-8" d="M895,248a127.47,127.47,0,0,0-70-39,76.47,76.47,0,0,0-25.5,8.5c-2,1.13-4.25,2.48-16,11-8.57,6.22-12.86,9.33-19,14-19,14.43-39,31.06-45.5,36.5a13.65,13.65,0,0,1,7.5,4.5c2.6,3.3,1.83,6.27,4,10,1.25,2.15,3.69,4.93,9,7a78.58,78.58,0,0,1,10-6,79.4,79.4,0,0,1,16-6c7.11-1.89,20.23-7.85,46.5-25.5l30.5,26.5c27.58,24,41.6,36,53,40,10,3.49,27.3,7,52.5-.5a352.06,352.06,0,0,0-53-81Z"/><path class="cls-9" d="M718.5,277.5a26.13,26.13,0,0,0-8,7c-2.88,3.88-2.82,6-6,9-2.37,2.24-4.63,3-7,4-13,5.41-11.7,9.76-22,13-4.18,1.31-7.91,1.75-13,5a33.27,33.27,0,0,0-4,3,9.22,9.22,0,0,0,2,8,208.9,208.9,0,0,0,22,2,118.61,118.61,0,0,0,14,0c6.61-.46,7.44-1.19,12-1,5.52.23,5.67,1.36,13,2,2,.18.19-.07,11,0,4.19,0,7.3.08,9-2a6.16,6.16,0,0,0,1-2c1-2.75.35-5.11,0-7-1.32-7,1-8.51-1-14a19.9,19.9,0,0,0-2-4,15.1,15.1,0,0,1-5-3c-3.58-3.28-3.34-6.48-8-14a12.63,12.63,0,0,0-5-5A10.83,10.83,0,0,0,718.5,277.5Z"/><path class="cls-10" d="M896,249l3-4-12-7-42.3-9.88Z"/><polygon class="cls-11" points="795.77 207.65 819 206 815.85 212.38 795.77 207.65"/><polygon class="cls-10" points="861.48 223 863 217 817.92 208.18 816 212 861.48 223"/><path class="cls-12" d="M880.44,237.14C825.79,223.33,806.08,218.43,804,218c-.81-.17-2.06-.64-4-1-4.07-.76-6-1-6-1-1.56-.19-2.67-.29-3-1s.4-1.69,0-2c-.09-.07-.15,0-1,0a3.91,3.91,0,0,1-1,0c-.25-.07-.64-.27-1-1L773,110a3.25,3.25,0,0,1,6,0q7,48.5,14,97l85,20,7,2c-.33,3-.67,6-1,9Z"/><polygon class="cls-13" points="839 221 839 224 844 225 844 222 839 221"/><polygon class="cls-13" points="849 223 849 226 877.05 232.66 868.23 227.83 849 223"/><path class="cls-14" d="M862.5,203.5c-.91-1.56-2.1-1.4-6-4-2.14-1.42-2.2-1.76-4-3a34.78,34.78,0,0,0-8-4,29.71,29.71,0,0,0-14-1,62.33,62.33,0,0,0-23,15,3.85,3.85,0,0,0,0,3c1.13,2.16,5.11,2.09,10,2,3.75-.07,5.62-.1,8-1a17.15,17.15,0,0,0,7-5l21,4c2.5,2.41,6,2.64,8,1S863.61,205.42,862.5,203.5Z"/><path class="cls-5" d="M861.5,210.5l-12-13a202.1,202.1,0,0,0-22-4c-3.17-.36-7.73-.77-11,2a8.4,8.4,0,0,0-1,1,7.22,7.22,0,0,0-3,4,7.45,7.45,0,0,0,1,6,19.8,19.8,0,0,0,4,4,20.93,20.93,0,0,0,12,4,83.32,83.32,0,0,1,11,2,85,85,0,0,1,12,4c2.1.87,5.24,2.22,9,4,8.4,4,14.35,7.46,17,9,5.93,3.44,14.92,8.43,28,15a29,29,0,0,1-4-15,28.52,28.52,0,0,1,2-10q-7.35-1.81-15-4C879.63,216.68,870.29,213.65,861.5,210.5Z"/><path class="cls-15" d="M935.5,123.5a113.36,113.36,0,0,0-16,16c-9.19,11.25-12.53,19.82-21,35-3.93,7.05-9.87,17.14-18,29l-17-1a6.39,6.39,0,0,0-2,4c-.22,2.82,1.77,5.7,5,7a97.13,97.13,0,0,0,32,11,14.53,14.53,0,0,0,5-2c5.44-3.47,6.73-9.53,7-11l31.14-81.39Z"/><path class="cls-6" d="M935,125c-9.71,22.55-15.72,32.56-19.5,37.5a37.08,37.08,0,0,0-7,14,34.1,34.1,0,0,0-1,8c-.18,2.72-.48,6.9-1,12-1.06,10.43-2.09,15.47-3,23A214.49,214.49,0,0,0,902,242l-7,8a37.05,37.05,0,0,0,2.5,5.5c2.91,5.23,5.78,7.43,9,11,6.08,6.74,3.87,7.8,10,15,5.09,6,6.48,5.09,11,11a59.65,59.65,0,0,1,7,12c2.5,5.57,2.43,7.5,5,13A62.33,62.33,0,0,0,945,327a7.36,7.36,0,0,0,4.5,1.5c2.64-.12,3.9-2,10-8,4.16-4.09,4.46-4.09,6-6a33,33,0,0,0,5-8c2.68-6.5.3-9.34,2-16,1.1-4.31,2.53-4.85,6-11,2.3-4.07,4.9-11.77,10-27,3.71-11.08,4.44-13.78,5-16,1-3.82,1-4.49,3-15,3-15.41,3.36-15.87,4-21a136.69,136.69,0,0,0,1-17A158.56,158.56,0,0,0,1000,161c-.15-4.55-1.2-19.21-12.5-31.5A47.05,47.05,0,0,0,971,118a36.08,36.08,0,0,0-36,7Z"/><path class="cls-9" d="M974.5,137.5a30.33,30.33,0,0,0-9,9,31.22,31.22,0,0,0-4,10c-3,12.05-8.79,21.83-13,29-4.93,8.39-6.32,8.17-12,18a147.17,147.17,0,0,0-8,16q-3.45-.52-7-1c-2.71-.36-5.37-.7-8-1a15.33,15.33,0,0,0-9,6c-3,4.44-2.45,9.35-2.26,11a31.31,31.31,0,0,0,3.26,11c.58,1.1,1.44,2.56,1,3-.91.92-6.4-3.68-7-3-.29.33.8,1.87,2,3a13,13,0,0,0,6,3,33.74,33.74,0,0,0,9,1,63.38,63.38,0,0,0,11-1,25.65,25.65,0,0,0,5,0c3.5-.35,10-.73,17-8,5.12-5.33,9.2-9.84,12-13,8.43-9.52,15.13-17.14,22-28A122.93,122.93,0,0,0,990,191a62.39,62.39,0,0,0,5-43,20.23,20.23,0,0,0-10.5-9.5A19.62,19.62,0,0,0,974.5,137.5Z"/><path class="cls-5" d="M940.89,119.53A33.77,33.77,0,0,1,941,138c-.23.78-.4,1.71,0,2,.57.41,2.3-.48,10-8,8-7.77,10.47-11.07,16-13a22.91,22.91,0,0,1,4-1l-5-8.23Z"/><path class="cls-16" d="M901.41,67.71A34.3,34.3,0,0,0,902.5,82.5c1.19,3.82,2.78,6.26,3,11a25.19,25.19,0,0,1-1,8c-2.13,8-6,9.77-6,15a13.15,13.15,0,0,0,3,8c1.73-5.09,4.33-7.11,6-8,3.28-1.76,6.27-1,15,0,5.27.57,9.49.86,12,1a53.91,53.91,0,0,1-8-6c-3.48-3.15-11.49-10.59-15-23a45.68,45.68,0,0,1-1-20Z"/><ellipse class="cls-5" cx="940.89" cy="82.16" rx="30.11" ry="38.95" transform="translate(33.25 343.36) rotate(-21.05)"/><path class="cls-17" d="M899.5,67.5l37,4a14.82,14.82,0,0,0-2,7c-.12,6,3.8,11.12,6,14,2,2.56,2.47,2.52,3,4,1.52,4.23-1.28,8.48-3,12a41.87,41.87,0,0,0-4,19,13.71,13.71,0,0,1,6-5c4-1.6,7-.21,10,0,12.55.85,19.92-19.16,29-17,1.19.28,3.08,1.11,5,4a59.15,59.15,0,0,0,1-21c-1.35-10.13-5-17.22-8-23a92.42,92.42,0,0,0-14-20,40.2,40.2,0,0,0-19-11c-17.56-4.33-31.71,5.37-34,7a33.23,33.23,0,0,0-6,6A35.31,35.31,0,0,0,899.5,67.5Z"/><path class="cls-18" d="M902.59,54.08l80.78,19.47,3.35,10.51c1.74,0,13.63.12,15.78-5.56a6.28,6.28,0,0,0,0-4c-3.6-12.15-46-25-46-25A124.53,124.53,0,0,0,943,45a143.38,143.38,0,0,0-20.19-3.72c-24.87-3.14-32.3-.34-36.31,1.22-2.92,1.14-5.57,2.67-6,5-1.13,6.18,14.2,13.63,19,15.86Z"/><path class="cls-19" d="M905.5,37.5l-1.08,2.17a194.55,194.55,0,0,1,76.26,18.88c-.39-1.35-.79-2.7-1.18-4a212.87,212.87,0,0,0-74-17Z"/><path class="cls-20" d="M905.5,37.5a212.87,212.87,0,0,1,74,17c-1.55-5.23-4.58-12-11-16-3.16-1.94-3.67-1.07-12-4a101.65,101.65,0,0,1-20-9c-5.22-3.16-5.8-4.32-9-5-7.28-1.54-13.39,2.58-14,3C906.46,28.39,905.6,36.34,905.5,37.5Z"/><path class="cls-21" d="M709,75.23H681a9,9,0,1,1,0-18h28a9,9,0,0,1,9,9C718,66.85,713.33,75.23,709,75.23Z"/><polyline class="cls-21" points="709 75.23 718 75.23 718 66.23"/><text class="cls-22" transform="translate(680.99 69.45)">REAC<tspan class="cls-23" x="22.04" y="0">T</tspan></text><path class="cls-21" d="M790.88,100.12h23.74c4.19,0,7.63-4.05,7.63-9s-3.44-9-7.63-9H790.88c-4.2,0-7.63,4-7.63,9C783.25,91.73,787.21,100.12,790.88,100.12Z"/><polyline class="cls-21" points="790.88 100.11 783.25 100.11 783.25 91.11"/><text class="cls-22" transform="translate(790.74 94.34)">htm<tspan class="cls-23" x="18.11" y="0">l</tspan></text><path class="cls-21" d="M739.55,116.56H715.82c-4.2,0-7.63-4-7.63-9s3.43-9,7.63-9h23.73c4.2,0,7.64,4,7.64,9C747.19,108.18,743.23,116.56,739.55,116.56Z"/><polyline class="cls-21" points="739.55 116.56 747.18 116.56 747.18 107.56"/><text class="cls-22" transform="translate(719.56 110.78)">C<tspan class="cls-24" x="5.02" y="0">S</tspan><tspan x="10.18" y="0">S</tspan></text><path class="cls-21" d="M763.67,62.06h22c3.89,0,7.08-4.05,7.08-9s-3.19-9-7.08-9h-22c-3.89,0-7.08,4-7.08,9C756.59,53.68,760.27,62.06,763.67,62.06Z"/><polyline class="cls-21" points="763.67 62.06 756.59 62.06 756.59 53.06"/><text class="cls-22" transform="translate(768.96 56.28)">JS</text><circle class="cls-25" cx="739.25" cy="30.06" r="1.25"/><circle class="cls-25" cx="744.25" cy="30.06" r="1.25"/><path class="cls-26" d="M740.75,30.21h2a.15.15,0,0,0,0-.3h-2a.15.15,0,0,0,0,.3Z"/><path class="cls-26" d="M746,30.21h2a.15.15,0,0,0,0-.3h-2a.15.15,0,0,0,0,.3Z"/><path class="cls-26" d="M750,30.21h2a.15.15,0,0,0,0-.3h-2a.15.15,0,0,0,0,.3Z"/><path class="cls-26" d="M753,30.21h2a.15.15,0,0,0,0-.3h-2a.15.15,0,0,0,0,.3Z"/><path class="cls-26" d="M756,30.21h2a.15.15,0,0,0,0-.3h-2a.15.15,0,0,0,0,.3Z"/><path class="cls-26" d="M774.15,40V38a.15.15,0,0,0-.3,0v2a.15.15,0,0,0,.3,0Z"/><path class="cls-26" d="M760,30.21h2a.15.15,0,0,0,0-.3h-2a.15.15,0,0,0,0,.3Z"/><path class="cls-26" d="M774.15,43V41a.15.15,0,0,0-.3,0v2a.15.15,0,0,0,.3,0Z"/><path class="cls-26" d="M774.15,35.5v-1a.15.15,0,0,0-.3,0v1a.15.15,0,0,0,.3,0Z"/><path class="cls-26" d="M771,34.15h2a.15.15,0,0,0,0-.3h-2a.15.15,0,0,0,0,.3Z"/><path class="cls-26" d="M766,34.15h2a.15.15,0,0,0,0-.3h-2a.15.15,0,0,0,0,.3Z"/><path class="cls-26" d="M764.15,33V31a.15.15,0,0,0-.3,0v2a.15.15,0,0,0,.3,0Z"/><path class="cls-26" d="M742,55.15h2a.15.15,0,0,0,0-.3h-2a.15.15,0,0,0,0,.3Z"/><path class="cls-26" d="M745,55.15h2a.15.15,0,0,0,0-.3h-2a.15.15,0,0,0,0,.3Z"/><path class="cls-26" d="M748.5,55.15h1a.15.15,0,0,0,0-.3h-1a.15.15,0,0,0,0,.3Z"/><path class="cls-26" d="M752,55.15h2a.15.15,0,0,0,0-.3h-2a.15.15,0,0,0,0,.3Z"/><path class="cls-26" d="M727,55.15h2a.15.15,0,0,0,0-.3h-2a.15.15,0,0,0,0,.3Z"/><path class="cls-26" d="M730.5,55.15h1a.15.15,0,0,0,0-.3h-1a.15.15,0,0,0,0,.3Z"/><path class="cls-26" d="M733,55.15h2a.15.15,0,0,0,0-.3h-2a.15.15,0,0,0,0,.3Z"/><path class="cls-26" d="M737,55.15h2a.15.15,0,0,0,0-.3h-2a.15.15,0,0,0,0,.3Z"/><path class="cls-26" d="M711,51.15h2a.15.15,0,0,0,0-.3h-2a.15.15,0,0,0,0,.3Z"/><path class="cls-26" d="M714.5,51.15h1a.15.15,0,0,0,0-.3h-1a.15.15,0,0,0,0,.3Z"/><path class="cls-26" d="M717,51.15h2a.15.15,0,0,0,0-.3h-2a.15.15,0,0,0,0,.3Z"/><path class="cls-26" d="M721,51.15h2a.15.15,0,0,0,0-.3h-2a.15.15,0,0,0,0,.3Z"/><path class="cls-26" d="M725.15,54V52a.15.15,0,0,0-.3,0v2a.15.15,0,0,0,.3,0Z"/><path class="cls-26" d="M697.5,51.15h1a.15.15,0,0,0,0-.3h-1a.15.15,0,0,0,0,.3Z"/><path class="cls-26" d="M700,51.15h2a.15.15,0,0,0,0-.3h-2a.15.15,0,0,0,0,.3Z"/><path class="cls-26" d="M703,51.15h2a.15.15,0,0,0,0-.3h-2a.15.15,0,0,0,0,.3Z"/><path class="cls-26" d="M707.5,51.15h1a.15.15,0,0,0,0-.3h-1a.15.15,0,0,0,0,.3Z"/><path class="cls-26" d="M697.15,54V52a.15.15,0,0,0-.3,0v2a.15.15,0,0,0,.3,0Z"/><path class="cls-26" d="M697.15,56.5v-1a.15.15,0,0,0-.3,0v1a.15.15,0,0,0,.3,0Z"/><path class="cls-26" d="M697.15,78V76a.15.15,0,0,0-.3,0v2a.15.15,0,0,0,.3,0Z"/><path class="cls-26" d="M697.15,85V83a.15.15,0,0,0-.3,0v2a.15.15,0,0,0,.3,0Z"/><path class="cls-26" d="M697.15,88V86a.15.15,0,0,0-.3,0v2a.15.15,0,0,0,.3,0Z"/><path class="cls-26" d="M697.15,80.5v-1a.15.15,0,0,0-.3,0v1a.15.15,0,0,0,.3,0Z"/><path class="cls-26" d="M714,88.15h2a.15.15,0,0,0,0-.3h-2a.15.15,0,0,0,0,.3Z"/><path class="cls-26" d="M717,88.15h2a.15.15,0,0,0,0-.3h-2a.15.15,0,0,0,0,.3Z"/><path class="cls-26" d="M720.5,88.15h1a.15.15,0,0,0,0-.3h-1a.15.15,0,0,0,0,.3Z"/><path class="cls-26" d="M724,88.15h2a.15.15,0,0,0,0-.3h-2a.15.15,0,0,0,0,.3Z"/><path class="cls-26" d="M699,88.15h2a.15.15,0,0,0,0-.3h-2a.15.15,0,0,0,0,.3Z"/><path class="cls-26" d="M702.5,88.15h1a.15.15,0,0,0,0-.3h-1a.15.15,0,0,0,0,.3Z"/><path class="cls-26" d="M705,88.15h2a.15.15,0,0,0,0-.3h-2a.15.15,0,0,0,0,.3Z"/><path class="cls-26" d="M709,88.15h2a.15.15,0,0,0,0-.3h-2a.15.15,0,0,0,0,.3Z"/><path class="cls-26" d="M727.15,94V92a.15.15,0,0,0-.3,0v2a.15.15,0,0,0,.3,0Z"/><path class="cls-26" d="M727.15,97V95a.15.15,0,0,0-.3,0v2a.15.15,0,0,0,.3,0Z"/><path class="cls-26" d="M727.15,89.5v-1a.15.15,0,0,0-.3,0v1a.15.15,0,0,0,.3,0Z"/><path class="cls-26" d="M757,109.15h2a.15.15,0,0,0,0-.3h-2a.15.15,0,0,0,0,.3Z"/><path class="cls-26" d="M760,109.15h2a.15.15,0,0,0,0-.3h-2a.15.15,0,0,0,0,.3Z"/><path class="cls-26" d="M763.5,109.15h1a.15.15,0,0,0,0-.3h-1a.15.15,0,0,0,0,.3Z"/><path class="cls-26" d="M767,109.15h2a.15.15,0,0,0,0-.3h-2a.15.15,0,0,0,0,.3Z"/><path class="cls-26" d="M748,109.15h2a.15.15,0,0,0,0-.3h-2a.15.15,0,0,0,0,.3Z"/><path class="cls-26" d="M752,109.15h2a.15.15,0,0,0,0-.3h-2a.15.15,0,0,0,0,.3Z"/><path class="cls-26" d="M770.15,98V96a.15.15,0,0,0-.3,0v2a.15.15,0,0,0,.3,0Z"/><path class="cls-26" d="M770.15,105v-2a.15.15,0,0,0-.3,0v2a.15.15,0,0,0,.3,0Z"/><path class="cls-26" d="M770.15,108v-2a.15.15,0,0,0-.3,0v2a.15.15,0,0,0,.3,0Z"/><path class="cls-26" d="M770.15,100.5v-1a.15.15,0,0,0-.3,0v1a.15.15,0,0,0,.3,0Z"/><path class="cls-26" d="M770,95.15h2a.15.15,0,0,0,0-.3h-2a.15.15,0,0,0,0,.3Z"/><path class="cls-26" d="M773,95.15h2a.15.15,0,0,0,0-.3h-2a.15.15,0,0,0,0,.3Z"/><path class="cls-26" d="M776.5,95.15h1a.15.15,0,0,0,0-.3h-1a.15.15,0,0,0,0,.3Z"/><path class="cls-26" d="M780,95.15h2a.15.15,0,0,0,0-.3h-2a.15.15,0,0,0,0,.3Z"/><circle class="cls-25" cx="841.75" cy="92.06" r="1.25"/><circle class="cls-25" cx="836.75" cy="92.06" r="1.25"/><path class="cls-26" d="M840.25,91.91h-2a.15.15,0,0,0,0,.3h2a.15.15,0,0,0,0-.3Z"/><path class="cls-26" d="M835,91.91h-2a.15.15,0,0,0,0,.3h2a.15.15,0,0,0,0-.3Z"/><path class="cls-26" d="M831,91.91h-2a.15.15,0,0,0,0,.3h2a.15.15,0,0,0,0-.3Z"/><path class="cls-26" d="M828,91.91h-2a.15.15,0,0,0,0,.3h2a.15.15,0,0,0,0-.3Z"/><path class="cls-26" d="M825,91.91h-2a.15.15,0,0,0,0,.3h2a.15.15,0,0,0,0-.3Z"/><path class="cls-27" d="M100.72,294.86a50.19,50.19,0,0,0-.09,14.8,39,39,0,0,0,2.07,8.48,37.38,37.38,0,0,0,5.23,9.55l24.32.14a49.82,49.82,0,0,0,4.28-8.44,52.75,52.75,0,0,0,3.32-24.3Z"/><path class="cls-28" d="M102.3,295.39c-.23,3.23-.67,14.66,7.26,24.37a32,32,0,0,0,9.76,8l-11.92-.6A43.56,43.56,0,0,1,100.12,307a42.72,42.72,0,0,1,.6-12.16Z"/><line class="cls-29" x1="101.4" y1="302.43" x2="131.35" y2="302.44"/><path class="cls-30" d="M111.93,267.9l3.52-10-4-4.29a4.86,4.86,0,0,0-6.38,6.3Z"/><path class="cls-28" d="M112.5,261c-.42-.11-.78,1.7-2.13,2.11s-2.62-.61-3.69-1.61l5.45,7.19h0S113.34,261.26,112.5,261Z"/><path class="cls-28" d="M120.29,294.44l-9.52-.05,1.22-33c-.25,5.7-.18,10.46,0,13.94.43,11.66,1.76,14.9,4.13,16.94A10.25,10.25,0,0,0,120.29,294.44Z"/><path class="cls-30" d="M110.61,294.91l1.12-27.2.3-7.16a9.53,9.53,0,0,1,18,.11L129.8,295Z"/><path class="cls-31" d="M122.27,256.29c7.74,2.41,5.86,9.15,5.71,15.46-.17,7.05-.11,14.11-.13,21.15a.38.38,0,0,0,.75,0c0-9.41.34-18.82.38-28.22,0-4.74-1.78-7.64-6.51-9.11-.46-.15-.66.58-.2.72Z"/><path class="cls-30" d="M119.84,280.16a11.23,11.23,0,0,1,1.09-4.22c.57-1.18,1.78-3.08,8.5-7.35,1.3-.83,3.1-1.93,5.31-3.15A6.9,6.9,0,0,1,141,276.06c-1.06,1.13-2.49,2.58-4.25,4.2-4.83,4.45-6.59,5-7.44,5.25a10.78,10.78,0,0,1-5.29,0"/><path class="cls-31" d="M135.7,267.18c4.25,0,6.52,6.62,2.81,9-.41.26,0,.91.38.65,4.34-2.81,1.9-10.41-3.19-10.42a.38.38,0,0,0,0,.75Z"/><polygon class="cls-32" points="381.33 279.17 385.93 328.08 423.4 328.31 426.95 279.44 381.33 279.17"/><path class="cls-28" d="M386.77,279.2l-6.25-.85,4.6,48.91,17.92.11a30.07,30.07,0,0,1-9.72-9.83c-1.73-2.9-3.09-6.39-4.77-19.59C388,293.25,387.25,286.86,386.77,279.2Z"/><path class="cls-33" d="M422.87,280.23l3.26,0-3.54,47.24-4.89,0Q420.3,303.85,422.87,280.23Z"/><rect class="cls-33" x="380.09" y="287.71" width="48.35" height="24.74" rx="1.57" transform="translate(1.79 -2.4) rotate(0.34)"/><path class="cls-33" d="M377.26,278.33l55.4.33a3.51,3.51,0,0,0,0-3.26,3.35,3.35,0,0,0-3.25-1.65l-48.88-.29a3.36,3.36,0,0,0-3.27,1.61A3.51,3.51,0,0,0,377.26,278.33Z"/><path class="cls-33" d="M382.18,273.3l3.34-14.65a2.78,2.78,0,0,1,1.64-1.62,2.86,2.86,0,0,1,3.25,1.65c1.08,1.64,2.16,3.27,3.23,4.91l31,.18a2.4,2.4,0,0,1,1.56,1.64l-.05,8.15Z"/><ellipse class="cls-34" cx="415.02" cy="300.13" rx="10.13" ry="7.74" transform="translate(112.42 713.36) rotate(-89.66)"/><rect class="cls-35" x="26.85" y="204.57" width="16.28" height="120.5" transform="translate(-43.6 9.52) rotate(-9.58)"/><rect class="cls-36" x="9.92" y="207.43" width="16.28" height="120.5" transform="translate(-44.31 6.74) rotate(-9.58)"/><rect class="cls-37" x="23.56" y="205.95" width="6.51" height="120.5" transform="translate(-43.94 8.18) rotate(-9.58)"/><rect class="cls-38" x="18.86" y="317.42" width="16.14" height="6.51" transform="matrix(0.99, -0.17, 0.17, 0.99, -53.01, 8.96)"/><rect class="cls-39" x="35.65" y="314.56" width="16.43" height="6.51" transform="translate(-52.3 11.74) rotate(-9.58)"/><rect class="cls-38" x="1.11" y="214.21" width="16.14" height="2.61" transform="translate(-35.75 4.54) rotate(-9.58)"/><rect class="cls-39" x="17.89" y="211.35" width="16.43" height="2.61" transform="translate(-35.04 7.31) rotate(-9.58)"/><rect class="cls-40" x="15.9" y="212.76" width="3.63" height="2.61" transform="translate(-35.39 5.94) rotate(-9.58)"/><rect class="cls-40" x="32.51" y="315.93" width="6.51" height="6.51" transform="translate(-52.64 10.41) rotate(-9.58)"/><rect class="cls-38" x="17.12" y="227.96" width="9.43" height="78.16" transform="translate(-44.15 7.36) rotate(-9.58)"/><rect class="cls-39" x="26.92" y="226.29" width="9.6" height="78.16" transform="translate(-43.74 8.98) rotate(-9.58)"/><rect class="cls-40" x="25.09" y="227.09" width="3.8" height="78.16" transform="matrix(0.99, -0.17, 0.17, 0.99, -43.94, 8.21)"/><polygon class="cls-35" points="79.03 324.55 72.43 326.23 41.33 211.25 47.92 209.57 79.03 324.55"/><polygon class="cls-36" points="72.07 326.32 65.48 328 34.37 213.02 40.97 211.34 72.07 326.32"/><polygon class="cls-37" points="73.69 325.91 71.05 326.58 39.95 211.6 42.59 210.93 73.69 325.91"/><polygon class="cls-38" points="70.97 321.62 67.15 322.59 42.77 232.47 46.59 231.5 70.97 321.62"/><polygon class="cls-39" points="75.07 320.57 71.18 321.56 46.8 231.44 50.69 230.46 75.07 320.57"/><polygon class="cls-40" points="46.03 231.64 47.57 231.25 71.95 321.37 70.41 321.76 46.03 231.64"/><g class="cls-41"><ellipse class="cls-38" cx="43.82" cy="221.16" rx="4.97" ry="4.82"/></g><g class="cls-42"><ellipse class="cls-39" cx="43.82" cy="221.16" rx="4.97" ry="4.82"/></g><polygon class="cls-40" points="41.72 216.71 43.39 216.29 45.91 225.61 44.24 226.03 41.72 216.71"/><path class="cls-27" d="M142.27,310.72a26.28,26.28,0,0,0-.05,7.75,21,21,0,0,0,1.08,4.44,19.72,19.72,0,0,0,2.74,5l12.74.08a26.71,26.71,0,0,0,2.25-4.42,27.6,27.6,0,0,0,1.73-12.73Z"/><path class="cls-28" d="M143.1,311a18.28,18.28,0,0,0,3.8,12.76A16.87,16.87,0,0,0,152,328l-6.24-.32A22.83,22.83,0,0,1,142,317.08a22.29,22.29,0,0,1,.32-6.36Z"/><line class="cls-29" x1="142.62" y1="314.68" x2="158.31" y2="314.69"/><path class="cls-30" d="M148.14,296.59l1.84-5.23-2.07-2.25a2.55,2.55,0,0,0-3.35,3.31Z"/><path class="cls-28" d="M148.44,293c-.22-.06-.41.89-1.12,1.11s-1.37-.32-1.93-.85l2.86,3.77h0S148.88,293.12,148.44,293Z"/><path class="cls-28" d="M152.52,310.5l-5,0,.64-17.27c-.13,3-.09,5.48,0,7.3.23,6.11.93,7.81,2.17,8.88A5.39,5.39,0,0,0,152.52,310.5Z"/><path class="cls-30" d="M147.45,310.75l.59-14.26.15-3.74a5,5,0,0,1,9.42.05l-.11,18Z"/><path class="cls-31" d="M153.51,290.69c4.23,1.46,2.88,5.9,2.83,9.31,0,3.23,0,6.46,0,9.69a.38.38,0,0,0,.75,0c0-5,.42-10.16.2-15.18-.1-2.43-1.18-3.73-3.54-4.55-.46-.16-.65.57-.2.73Z"/><path class="cls-30" d="M152.28,303a6,6,0,0,1,.57-2.21c.3-.62.93-1.62,4.46-3.85.68-.44,1.62-1,2.78-1.65a3.61,3.61,0,0,1,3.29,5.56c-.56.59-1.31,1.35-2.23,2.2-2.53,2.33-3.45,2.63-3.9,2.75a5.59,5.59,0,0,1-2.77,0"/><path class="cls-31" d="M160.59,296.4c2,0,3.18,3.23,1.38,4.39-.4.26,0,.91.38.65,2.42-1.57,1.09-5.79-1.76-5.79a.38.38,0,0,0,0,.75Z"/><rect class="cls-31" x="479.29" y="212.62" width="28.85" height="58.52"/><rect class="cls-43" x="479.09" y="212.62" width="7.72" height="58.32"/><rect class="cls-44" x="481.12" y="215.26" width="5.69" height="52.02"/><rect class="cls-45" x="486.81" y="215.26" width="11.38" height="52.02"/><rect class="cls-46" x="498.19" y="215.26" width="7.31" height="52.02"/><path class="cls-47" d="M501.85,212.62l13.2-26.82a1.54,1.54,0,0,1,1.22-.41,1.6,1.6,0,0,1,1.22,1.63l-11.33,25.6Z"/><path class="cls-48" d="M510.19,195.67l3.5-7.11a1.54,1.54,0,0,1,1.16-.12,2,2,0,0,1,1,2.31L512.19,199a2.49,2.49,0,0,1-2-3.32Z"/><path class="cls-48" d="M504.1,208.67l3.5-7.11a1.58,1.58,0,0,1,1.16-.12,2,2,0,0,1,1,2.32L506.09,212a2.48,2.48,0,0,1-2-3.33Z"/><path class="cls-31" d="M534.15,274.79H461.82a13.38,13.38,0,0,0,.61,25.81l72.33.41c-8.79.78-15.83-6.39-15.44-13.82C519.68,280.42,526.18,274.37,534.15,274.79Z"/><path class="cls-49" d="M535.17,270.93l-74,.82a17.37,17.37,0,0,0-13,15.44,16.5,16.5,0,0,0,11,15.85l76.8,1.22a2,2,0,0,0,0-3.25l-73.55-.41a16.06,16.06,0,0,1-10.16-13,13.53,13.53,0,0,1,2-7.32,13.81,13.81,0,0,1,7.31-5.69h73.56a2,2,0,0,0,1.22-2A2,2,0,0,0,535.17,270.93Z"/><path class="cls-47" d="M469.54,298l-2-1.63c-2.13-1.69-2.58-2-3.25-2s-1.29.4-2.44,1.22A20.34,20.34,0,0,0,459,298V287.39h10.57Z"/><path class="cls-31" d="M451.13,305.7c.25-2.54,22.68-3.26,88.58,0,4.91.69,8.46,4.67,8.2,9.1-.33,5.55-8.66,8-9.56,8.27-3.12.92-4.39.27-11.1.46-4.69.14-7.36.55-10.16.81-14.78,1.42-25.5-1.86-45.52-.81-11.29.59-20.54,2.3-21.15.2s9.23-5.45,9-10.36C459.14,309,451,307.25,451.13,305.7Z"/><path class="cls-48" d="M449.94,303l90.23.62a12.67,12.67,0,0,1,7.1,4.14,10.31,10.31,0,0,1,.18,12.82c-3,3.87-7.88,4.45-8.72,4.54L449,326a1.72,1.72,0,0,1-.95-.84c-.17-.51.2-1.05.95-1.4l85.94-.28c6.14-.25,11-3.18,12.07-7a7.8,7.8,0,0,0-.46-5c-1.72-4.12-6.12-5.57-6.83-5.79l-89.77-.17c-.95-.25-1.52-.82-1.42-1.4S449.15,303.24,449.94,303Z"/><polygon class="cls-32" points="335.28 292.43 338.45 326.17 364.31 326.32 366.76 292.61 335.28 292.43"/><path class="cls-28" d="M339,292.45l-4.32-.59,3.18,33.74,12.36.08a20.77,20.77,0,0,1-6.7-6.79c-1.2-2-2.14-4.4-3.3-13.51C339.85,302.14,339.37,297.73,339,292.45Z"/><path class="cls-33" d="M363.94,293.16h2.25q-1.21,16.29-2.44,32.59l-3.37,0Q362.17,309.45,363.94,293.16Z"/><rect class="cls-33" x="334.43" y="298.32" width="33.36" height="17.07" rx="1.57" transform="translate(1.83 -2.08) rotate(0.34)"/><path class="cls-33" d="M332.48,291.85l38.22.22a2.44,2.44,0,0,0,0-2.24,2.31,2.31,0,0,0-2.24-1.14l-33.73-.2a2.3,2.3,0,0,0-2.25,1.11A2.4,2.4,0,0,0,332.48,291.85Z"/><path class="cls-33" d="M335.87,288.37l2.31-10.1a1.9,1.9,0,0,1,1.13-1.12,2,2,0,0,1,2.24,1.14c.74,1.13,1.48,2.26,2.23,3.38l21.4.13a1.64,1.64,0,0,1,1.07,1.13l0,5.62Z"/><ellipse class="cls-34" cx="358.52" cy="306.89" rx="6.99" ry="5.34" transform="translate(49.51 663.58) rotate(-89.66)"/><circle class="cls-50" cx="249.67" cy="224.38" r="36.67"/><circle class="cls-31" cx="252.33" cy="224.25" r="36.67"/><circle class="cls-51" cx="252.33" cy="224.25" r="2.98"/><rect class="cls-52" x="230.55" y="221.87" width="19.12" height="2.82" rx="1.41"/><rect class="cls-52" x="249.62" y="234.92" width="25.91" height="3.09" rx="1.54" transform="translate(284.68 -116.2) rotate(51.58)"/><circle class="cls-52" cx="252.33" cy="192.73" r="2.35"/><circle class="cls-52" cx="252.33" cy="256.51" r="2.35"/><circle class="cls-52" cx="284.61" cy="224.28" r="2.35"/><circle class="cls-52" cx="220.36" cy="224.28" r="2.35"/><circle class="cls-52" cx="235.72" cy="198.84" r="1.25"/><circle class="cls-52" cx="225.07" cy="209.5" r="1.25"/><circle class="cls-52" cx="280.38" cy="240.68" r="1.25"/><circle class="cls-52" cx="269.73" cy="251.33" r="1.25"/><circle class="cls-52" cx="267.53" cy="197.74" r="1.25"/><circle class="cls-52" cx="279.44" cy="209.65" r="1.25"/><circle class="cls-52" cx="225.22" cy="240.05" r="1.25"/><circle class="cls-52" cx="235.88" cy="251.65" r="1.25"/></g></g></svg>