<svg xmlns="http://www.w3.org/2000/svg" viewBox="0 0 497 361"><defs><style>.cls-1{fill:#eff3f5;}.cls-2{fill:#244e62;}.cls-3{fill:#f9f3df;}.cls-4{fill:#fff;}.cls-5{fill:#fae64f;}.cls-6{fill:#a2c567;}.cls-7{fill:#2c2a49;}.cls-8{fill:#f3f3ff;}.cls-9{fill:#ef765e;}.cls-10{fill:#aba187;}.cls-11{fill:#df5e56;}.cls-12{fill:none;}</style></defs><title>panda</title><g id="Layer_2" data-name="Layer 2"><g id="assets"><rect class="cls-1" x="216" y="214.98" width="135" height="23" rx="11.5"/><rect class="cls-1" x="91" y="229.98" width="158" height="25" rx="12"/><rect class="cls-1" x="258" y="152.98" width="115" height="16" rx="8"/><rect class="cls-1" x="237.6" y="131.98" width="137.92" height="12" rx="5"/><rect class="cls-1" x="106.63" y="207.98" width="137.92" height="12" rx="5"/><path class="cls-2" d="M299.42,130l-12.35,7.69a910.72,910.72,0,0,0,12.35,160.81q2.06,12.36,4.42,24.37a10.38,10.38,0,0,0,1.89-2.26,10.81,10.81,0,0,0,1.58-4.74,12.49,12.49,0,0,0,4.74,6.32,9,9,0,0,0,3.16-9.47V287.46q-6.31-47.37-12.64-94.76Z"/><path class="cls-3" d="M287.07,137.71c2.31,24.85,3.66,45,4.45,58.15,2.66,44.58,2.28,66.86,7.9,102.66,2.27,14.49,4.73,26.12,6.31,33.17a9,9,0,0,1,1.58,7.9,2.64,2.64,0,0,1-1.58,1.57,2.78,2.78,0,0,1-3.16-1.57,3.63,3.63,0,0,1,0,3.15,3.21,3.21,0,0,1-3.15,1.58l-3.95-.79a5.3,5.3,0,0,1-.79,2.37,5.12,5.12,0,0,1-1.58,1.58,7.19,7.19,0,0,1-3.16-1.58,7.42,7.42,0,0,1-2.37-3.95,17,17,0,0,1-5.53-2.36,17.59,17.59,0,0,1-4.74-4.74c-4.52-6.54-4.19-13.6-7.89-23.69a65.24,65.24,0,0,0-4-8.69c-.38-.55-5-7.11-13.43-7.11s-13.05,6.56-13.42,7.11Q232.3,319,226,335.64l-4.74,4.74c-2.75,3.88-5.64,5.09-7.1,5.52-.91.27-2.48.74-3.16,0s-.34-2.29.79-3.95a8.86,8.86,0,0,1-3.95,2.37,8.75,8.75,0,0,1-4.74,0,4.25,4.25,0,0,1-1.58-3.16,4,4,0,0,1,.79-2.36,6.63,6.63,0,0,1-2.37.79,6.91,6.91,0,0,1-1.58,0,6.39,6.39,0,0,1-1.58-4.74,7.05,7.05,0,0,1,1.58-3.16,14.26,14.26,0,0,1,3.16-3.16c.26-1.84.53-3.69.79-5.53L207,310.37A180.7,180.7,0,0,0,211,284.31c.8-10.6.32-17.13,1.58-31.59.53-6.1,1.15-11.06,1.58-14.22.59-4.59,1.57-11.15,3.16-18.95,2.29-11.28,4.86-20.19,9.47-34.75,3.69-11.62,8.51-26.33,14.51-43.43a101.69,101.69,0,0,0,23.4.79A101.14,101.14,0,0,0,287.07,137.71Z"/><path class="cls-2" d="M241.27,141.37,216.64,128.1a422.3,422.3,0,0,0-26.2,58.28c-8.65,23.92-16.93,47.4-19,79a223.87,223.87,0,0,0,2.37,49.75A23.56,23.56,0,0,0,177,329.32a5.09,5.09,0,0,0,2.37-.79,5.68,5.68,0,0,0,2.37-3.95,12.38,12.38,0,0,0,2.37,7.11,11.49,11.49,0,0,0,2.37,2.37,5.63,5.63,0,0,0,3.95-2.37,5.44,5.44,0,0,0,.78-3.95,16.29,16.29,0,0,0,4.74,6.32,9.5,9.5,0,0,0,6.32-6.32,154.5,154.5,0,0,0,3.95-15L211,287.46a366.78,366.78,0,0,1,30.3-146.09Z"/><ellipse class="cls-2" cx="259.14" cy="95.56" rx="57.65" ry="48.17"/><ellipse class="cls-4" cx="255.19" cy="96.35" rx="44.22" ry="36.33"/><circle class="cls-2" cx="274.14" cy="88.46" r="4.74"/><circle class="cls-2" cx="228.34" cy="88.46" r="4.74"/><path class="cls-2" d="M252,93.19a4,4,0,0,0-6.32,0,9.2,9.2,0,0,0,1.58,3.16,9,9,0,0,0,1.58,1.58,8.68,8.68,0,0,0,1.58-1.58A9,9,0,0,0,252,93.19Z"/><ellipse class="cls-5" cx="276.51" cy="101.09" rx="5.53" ry="3.16"/><ellipse class="cls-5" cx="226.76" cy="100.3" rx="5.53" ry="3.16"/><ellipse class="cls-2" cx="307.31" cy="59.24" rx="10.27" ry="6.32" transform="translate(24.25 192.74) rotate(-36.16)"/><ellipse class="cls-2" cx="299.89" cy="51.76" rx="10.27" ry="5.68" transform="translate(63.6 243.54) rotate(-48.86)"/><ellipse class="cls-2" cx="223.18" cy="52.34" rx="6.32" ry="10.27" transform="translate(5.46 124.08) rotate(-31.44)"/><ellipse class="cls-2" cx="215.12" cy="59.12" rx="5.68" ry="10.27" transform="translate(19.55 166.48) rotate(-44.13)"/><polygon class="cls-6" points="345.33 285.15 349.93 334.07 387.4 334.29 390.95 285.43 345.33 285.15"/><path class="cls-7" d="M350.77,285.19l-6.25-.86,4.6,48.92,17.92.1a30.07,30.07,0,0,1-9.72-9.83c-1.73-2.9-3.09-6.38-4.77-19.58C352,299.23,351.25,292.84,350.77,285.19Z"/><path class="cls-8" d="M386.87,286.22l3.26,0-3.54,47.23-4.89,0Q384.3,309.83,386.87,286.22Z"/><rect class="cls-8" x="344.09" y="293.69" width="48.35" height="24.74" rx="1.57" transform="translate(1.82 -2.18) rotate(0.34)"/><path class="cls-8" d="M341.26,284.32l55.4.32a3.5,3.5,0,0,0,0-3.25,3.32,3.32,0,0,0-3.25-1.65l-48.88-.29a3.33,3.33,0,0,0-3.27,1.61A3.52,3.52,0,0,0,341.26,284.32Z"/><path class="cls-8" d="M346.18,279.28l3.34-14.65a2.8,2.8,0,0,1,1.64-1.62,2.88,2.88,0,0,1,3.25,1.65c1.08,1.64,2.16,3.27,3.23,4.91l31,.18a2.42,2.42,0,0,1,1.56,1.64l-.05,8.15Z"/><ellipse class="cls-9" cx="379.02" cy="306.12" rx="10.13" ry="7.74" transform="translate(70.65 683.31) rotate(-89.66)"/><path class="cls-3" d="M168.87,72a34,34,0,1,1-34-34A34,34,0,0,1,168.87,72Z"/><path class="cls-10" d="M160.38,106l2.94-15.26a40,40,0,0,0,2.77-5.55c3.57-8.77,3.67-17.88,2.78-18-.45-.09-1,2.11-2.78,6.93-5.08,14.07-7.62,21.1-11.1,23.6-6.37,4.56-17,4.23-19.43,4.16-.4,0-2-.07-4.16,0-1.4,0-9.63.31-9.71,1.39S128,106,134.17,106a38.28,38.28,0,0,0,9.72-1.39,41,41,0,0,0,4.16-1.38Z"/><path class="cls-11" d="M118.91,71.29q1.26,2,2.78,4.16a75.43,75.43,0,0,0,9.71,11.1,2.44,2.44,0,0,0,2.77,1.39,2.32,2.32,0,0,0,1.39-1.39,83.83,83.83,0,0,0,12.49-13.87,8.58,8.58,0,0,0-2.77-12.49A11.15,11.15,0,0,0,137,61.57a10.22,10.22,0,0,0-2.78,2.78,8.93,8.93,0,0,0-2.77-2.78,9.32,9.32,0,0,0-5.55-1.38,7.8,7.8,0,0,0-6.94,4.16A8.05,8.05,0,0,0,118.91,71.29Z"/><rect class="cls-12" width="497" height="361"/></g></g></svg>