<svg xmlns="http://www.w3.org/2000/svg" viewBox="0 0 497 361"><defs><style>.cls-1{fill:none;}.cls-2{fill:#eff3f5;}.cls-3{fill:#5b8fbb;}.cls-4{fill:#1c4e8d;}.cls-5{fill:#f9f3df;}.cls-6{fill:#f4e7c5;}.cls-7,.cls-9{fill:#244e62;}.cls-8{fill:#77bee5;}.cls-9{stroke:#fff;stroke-miterlimit:10;stroke-width:0.5px;opacity:0.4;}</style></defs><title>rocket</title><g id="Layer_2" data-name="Layer 2"><g id="assets"><rect class="cls-1" width="497" height="361"/><path class="cls-2" d="M100.27,289,144.8,261.3a8.13,8.13,0,0,1,2.83,3.15,8,8,0,0,1,.84,3.05L132.8,279.69c-1.12.88-1.54,2.19-1.15,2.94.47.92,2.34,1.39,4,.21l15.67-12.18a5.88,5.88,0,0,1,2.89,2.15,5.74,5.74,0,0,1,.89,2.05l-39,36a3.58,3.58,0,0,0,.89,2A3.61,3.61,0,0,0,119,314l39-36a8.21,8.21,0,0,1,3.83,3.21,7.78,7.78,0,0,1,.9,2Q151,295.67,139.31,308.07a2.12,2.12,0,0,0,2.83,3.16l23.35-24.8a4.47,4.47,0,0,1,3.94,1.21,3.88,3.88,0,0,1,.9,2.05L139,332.09a6.22,6.22,0,0,0-1.15,2.94c-.28,2.43,1.51,3.58,1.73,5.1.51,3.61-7.27,10.09-15.57,10.19-7.73.09-8.5-5.46-17.6-7.94-13.07-3.57-22.43,4.91-26.07.61-2.6-3.07,2.33-7.28,2-17.92-.33-9.31-4.3-11.63-4-18.24.2-5.09,2.89-12.1,14.09-20.28a11.19,11.19,0,0,0,4.89,2.26A10.67,10.67,0,0,0,100.27,289Z"/><path class="cls-3" d="M172.43,228.53,203,261a760.2,760.2,0,0,0,76.33-50c13.89-10.34,26.83-20.7,38.83-30.92a233.23,233.23,0,0,0,21.23-29.75c15.05-25.06,14.72-35.32,13.43-41.38a32.82,32.82,0,0,0-2.43-7.15,16.05,16.05,0,0,0-2.65-3c-20.14-17.36-79.64,22.23-91.42,30.23q-15.21,16.44-30.59,34.16C206.55,185.41,188.82,207.22,172.43,228.53Z"/><path class="cls-4" d="M173.09,229.27a27.85,27.85,0,0,0-15.47.58c-10.66,3.6-15.29,12.68-16.21,14.58l41.08,45.68A28.36,28.36,0,0,0,197,281.06a28.8,28.8,0,0,0,6.64-19.29Q188.37,245.51,173.09,229.27Z"/><path class="cls-5" d="M214.94,207.64a89.7,89.7,0,0,1,36.25-21.94A124.08,124.08,0,0,1,225.61,218L148,278.46Q181.49,243,214.94,207.64Z"/><path class="cls-6" d="M279.31,211.06l-3.55,40.5L191,315.82c3.35-3.2,13.92-14.13,15.7-31.44a49.61,49.61,0,0,0-3-22.61Z"/><path class="cls-6" d="M230.21,157.93l-42.06-.84q-35.73,38.81-71.48,77.6c3.18-2.7,16.74-13.61,35.73-12.13a47.24,47.24,0,0,1,20.69,6.71Z"/><path class="cls-6" d="M316.21,97.7a36.1,36.1,0,0,0,8.66,21.75,36.6,36.6,0,0,0,24.27,12.12,33.88,33.88,0,0,0,4.09-17.63c-.21-4.07-.51-9.93-4.85-14.29-3.33-3.34-7.39-4.14-11-4.79A36.61,36.61,0,0,0,316.21,97.7Z"/><path class="cls-7" d="M189.19,246.39a46.69,46.69,0,0,1-19.95,29l13.25,14.73c2-.53,11.89-3.31,17.54-13.1a27.87,27.87,0,0,0,3.61-15.24Q196.43,254.08,189.19,246.39Z"/><path class="cls-4" d="M251.11,187.1l-.89,16.8a355.83,355.83,0,0,0,57.11-44.68A355.89,355.89,0,0,0,336.09,128l13.38,4a162.16,162.16,0,0,1-24.62,40.79c-13.65,16.45-26.46,25-55.71,44.75-14.61,9.85-32.45,21.9-65.5,44.24L189,247c3.78-3.24,9.88-8.38,17.61-14.5C221.09,221,226,218.21,233,211.4A101.58,101.58,0,0,0,251.11,187.1Z"/><circle class="cls-8" cx="286.41" cy="156.7" r="26.63"/><path class="cls-4" d="M264.32,149.91c.89,11.55,10.32,20.49,21.35,20.79a22.33,22.33,0,0,0,21.95-17.08,23.17,23.17,0,0,1-5.16,18c-6.92,8-16.73,7.83-18,7.78s-10.94-1-17-9.64C261.19,160.8,264,151.08,264.32,149.91Z"/><polygon class="cls-9" points="173.09 229.27 166.93 226.13 205.23 179.05 192.63 178.38 152.4 222.56 144.99 222.59 190.13 172.64 209.73 173.68 223.53 157.57 230.21 157.93 173.09 229.27"/><polygon class="cls-9" points="203.64 261.77 205.19 266.57 254.18 234.98 253.51 247.57 206.79 282.74 205.95 289 259.04 249.27 260.08 229.68 278.92 218.42 279.31 211.06 203.64 261.77"/><path class="cls-9" d="M148,278.46l101.19-92.11A82.27,82.27,0,0,1,225.61,218Z"/><circle class="cls-2" cx="83" cy="94.98" r="5"/><circle class="cls-2" cx="175" cy="146.98" r="5"/><circle class="cls-2" cx="200" cy="58.98" r="5"/><circle class="cls-2" cx="349" cy="204.98" r="5"/><circle class="cls-2" cx="383" cy="58.98" r="5"/><circle class="cls-2" cx="363" cy="277.98" r="5"/><circle class="cls-2" cx="414" cy="156.98" r="5"/></g></g></svg>