<svg xmlns="http://www.w3.org/2000/svg" viewBox="0 0 497 361.8"><defs><style>.cls-1,.cls-15,.cls-2,.cls-8{fill:none;}.cls-15,.cls-2{stroke:#244e62;}.cls-15,.cls-2,.cls-4,.cls-7,.cls-8,.cls-9{stroke-miterlimit:10;}.cls-13,.cls-14,.cls-3,.cls-4,.cls-7{fill:#244e62;}.cls-4,.cls-7{stroke:#fff;}.cls-15,.cls-4,.cls-7{stroke-width:0.5px;}.cls-5{fill:#f9f3df;}.cls-6{fill:#f5c06a;}.cls-7{opacity:0.4;}.cls-8{stroke:#f5c06a;}.cls-9{fill:#fafeff;stroke:#000;stroke-width:0.25px;}.cls-10{fill:#d6dbe8;}.cls-11{fill:#f9d589;}.cls-12{fill:#eff3f5;}.cls-13{opacity:0.28;}.cls-14{opacity:0.2;}.cls-15{opacity:0.16;}.cls-16{opacity:0.18;}</style></defs><title>ui</title><g id="Layer_2" data-name="Layer 2"><g id="assets"><rect class="cls-1" y="0.55" width="497" height="361"/><line class="cls-2" x1="140.15" y1="0.06" x2="134" y2="51.05"/><circle class="cls-3" cx="134.5" cy="49.55" r="3"/><path class="cls-4" d="M125,65.45q.85-6.62,1.72-13.23L139.59,50,143,63.7Z"/><path class="cls-4" d="M120.44,69.92l28.87-2.82a5.21,5.21,0,0,0-1.19-1.89A6.29,6.29,0,0,0,143,63.7L125,65.45a5.86,5.86,0,0,0-3.79,2.38A5.48,5.48,0,0,0,120.44,69.92Z"/><polygon class="cls-5" points="114.84 87.11 48.02 361.06 411.27 361.06 163.03 80.75 114.84 87.11"/><ellipse class="cls-6" cx="137.5" cy="85.05" rx="5.5" ry="4"/><path class="cls-4" d="M111.5,87.55l53-7a24.46,24.46,0,0,0-5-8,21.48,21.48,0,0,0-9-6,24.15,24.15,0,0,0-8-1,40.14,40.14,0,0,0-9,1c-8.07,1.78-13.55,3-17.5,7.5C114.78,75.45,111.5,79.69,111.5,87.55Z"/><polygon class="cls-7" points="175 317.55 211.68 361.06 411.5 361.55 373.42 317.55 175 317.55"/><polygon class="cls-3" points="411.5 156.55 497 296.04 496.5 361.55 411.5 361.55 373.5 317.55 411.5 318.55 411.5 156.55"/><polygon class="cls-3" points="230.5 157.05 175.5 157.05 175.5 318.05 373.5 318.05 230.5 157.05"/><polyline class="cls-8" points="248.5 177.32 197.5 177.55 197.5 190.55 248.5 190.55"/><circle class="cls-8" cx="257" cy="184.05" r="10.5"/><rect class="cls-8" x="209" y="217.05" width="65" height="60.5"/><rect class="cls-8" x="283.5" y="216.55" width="21" height="21"/><rect class="cls-8" x="283.5" y="247.55" width="24" height="12"/><rect class="cls-8" x="283.5" y="268.55" width="24" height="24"/><rect class="cls-8" x="318.5" y="262.55" width="20" height="11"/><polygon class="cls-9" points="230.61 157.05 373.18 318.05 411.5 318.55 411.5 157.55 230.61 157.05"/><polyline class="cls-8" points="197.5 184.05 190 184.05 190 248.05 209 248.05"/><path class="cls-8" d="M241.5,277.55v26.5l54,.5v-12"/><line class="cls-8" x1="295.5" y1="268.55" x2="295.5" y2="259.55"/><line class="cls-8" x1="295.5" y1="247.3" x2="295.5" y2="237.8"/><polygon class="cls-6" points="331.82 288.55 326.22 296.05 336.62 296.05 331.82 288.55"/><polygon class="cls-6" points="346.19 288.55 342.22 296.05 351.11 296.05 346.19 288.55"/><path class="cls-6" d="M327.49,299.26c.25-.94,1,.07,1.31.28a1.81,1.81,0,0,0,1.08.33,25.84,25.84,0,0,0,4.43-.77c.95-.17.55-1.61-.4-1.44l-2.22.39a5.72,5.72,0,0,1-1.81.32c-.49-.14-.74-.8-1.3-1a2,2,0,0,0-2.53,1.45.75.75,0,0,0,1.44.4Z"/><path class="cls-6" d="M342.6,299.62a22.51,22.51,0,0,1,6.95.18c.94.18,1.35-1.27.4-1.44a23.55,23.55,0,0,0-7.35-.24c-1,.12-1,1.62,0,1.5Z"/><path class="cls-6" d="M203,185.62a1.5,1.5,0,0,0,0-3,1.5,1.5,0,0,0,0,3Z"/><path class="cls-6" d="M204.65,186c.25-.52.57-1.72,1-2.07.69-.56.77.2,1.2.67.29.32.44.82.95.87.78.09,1.23-.7,2-.83,1.49-.26,3.55.23,5,.33.49,0,.48-.72,0-.75-1.61-.11-4-.74-5.58-.33-.22.06-.54.3-.75.3-.29.57-.67.47-1.13-.29-.07-.18-.14-.36-.22-.54-1.78-1.82-2.33.56-3.16,2.26-.21.43.43.81.65.38Z"/><path class="cls-6" d="M217,184.34c0-.53,1.11-1.94,1.52-1.59.12.09.07.92.11,1.09a2,2,0,0,0,.67,1.34c.6.44,1,.3,1.54-.13.37-.28.42-1.31,1.08-1.32-.25,0,.9.86.79.81a5.63,5.63,0,0,0,2.28,0l4.34-.15c.48,0,.48-.77,0-.75-1.59,0-3.24.26-4.83.17-1.24-.07-1.22-.51-2.13-.83-.06,0-.1-.12-.18-.15-1.34-.42-1.63,1.89-2.86.32-.61-.78,0-1.92-1.57-1.83s-1.58,1.93-1.51,3c0,.48.78.49.75,0Z"/><path class="cls-6" d="M231.59,185.29c1-2,1.4-1.12,3.36-1,1.48.06,4.8.68,6-.28.34-.28.48-1.36.6-1.45,1.62-1.15,2.49,2.22,3.68,2.86.42.23.8-.41.38-.64-1.17-.63-1.71-5.28-4.06-4.11-.95.48-.33,1.21-.75,1.89-1,1.7-7,1.5-8.28.32a.38.38,0,0,0-.59.08l-1,2c-.21.43.43.81.65.38Z"/><path class="cls-6" d="M216.56,230.11a3.61,3.61,0,0,1,1.26-3.57l.27,1.2c.15.21.44,1.48.88,1.74a2.78,2.78,0,0,0,1,.36c.22,0,.55-.52.7-.57,2.75-.81,2.33-1.49,4.8-1.48,2.85,0,9.4-1,11.4,1.31.31.36.84-.17.53-.53-2.44-2.78-8-1.52-11.23-1.53a33.19,33.19,0,0,0-4.91.35c-.31.05-.57.68-.8.7-2.06.15-1.74-1.22-2.22-2.55a.39.39,0,0,0-.27-.26c-2.42-.4-2.26,3.3-2.17,4.83,0,.48.78.49.75,0Z"/><path class="cls-6" d="M241.91,229.26a13.05,13.05,0,0,0,.25-1.39c1.54-1.87,2.64-2.09,3.3-.64.21.05.5.73.78.68a7.72,7.72,0,0,0,1,.11c.86-.1,1-1.16,1.69-1.33,1.08-.28,2.11.84,3.34,1.09,3.89.79,9.94-2.94,13.5-.5.4.27.78-.38.38-.65a5,5,0,0,0-3.52-1,82.91,82.91,0,0,1-8.52.51c-3.11-.14.7.83-2.94-.12-2.17-.57.39-.55-1.68-.76-1-.1-1.09,1.24-2.62,1.06-1.85-.21-1.17-1-2.5-1.64-2.76-1.21-2.88,2.81-3.17,4.38-.09.48.63.68.72.2Z"/><path class="cls-6" d="M218.28,236.51c-.46-3.2,3.06,1.52,2.18,1,2,1.13-.54.68,1.68,1.05a.4.4,0,0,0,.42-.17c.84-1.76.73-3.71,2.84-2.64.88.45,0,1.09,1.2,1.46,3,1,1-5.44,6.48-1.43a.38.38,0,0,0,.45-.06l2.65,0a.38.38,0,0,0,.55-.22c.64-1.66,12.5.25,13.08.52a.39.39,0,0,0,.52-.13c.44-.89,4.91-.94,5.84-.92.58,0,1.2.46,1.83.41a2.83,2.83,0,0,0,2.15-1c.37-.31-.17-.84-.53-.53-2.24,1.89-5.64-1.27-8.43-.49s1.1.75-2.36,1.37c-.07,0-2-.29-2.46-.31-2.25-.11-4.51-.44-6.69-.61s-.65-.38-2.39-.08-.78,1-2.94.24a.36.36,0,0,0-.37.09c-.86.94-2.93-.18-4.07.17,1.71-.52-3.91,1.44-1.89,1.35-1.27.06-2.45-1.64-3.2-2.54a.38.38,0,0,0-.59.08c-.74,1.54-1.12,4.31-3.5,2.92-.27-.16-.12-1-.4-1.13-.8-.51-.51-1.38-1.78-1.13s-1.13,1.86-1,2.85c.07.48.79.28.72-.2Z"/><path class="cls-6" d="M218,246.28c.13-.45.84-3.11,1.35-3.07,1.27.11.6,1.1,1.21,1.55.81.62.43.49,1.21.56.33,0,.26-.13.47-.18,1.58-.36,1.81-.83,3.36-.82l7,0a.38.38,0,0,0,0-.75l-5.37,0c-1.28,0-3.05-.37-4.26.09s-.62.75-1.6,0c-.78-.56-.76-1.24-1.61-1.69a.37.37,0,0,0-.51.13,11.45,11.45,0,0,0-2,3.94.37.37,0,0,0,.72.2Z"/><path class="cls-6" d="M238.41,244c-1.57-4.14,13.15-2.56,13.49-2.53,3.79.37,7.78-.38,11.57-.74.48,0,.48-.8,0-.75a69.76,69.76,0,0,1-13.15.28c-1.47-.12-2.78.18-4.22.18-1.73,0-3.5-1.23-5.13-1.17-2.88.1-4.33,2.15-3.28,4.93.17.45.9.25.72-.2Z"/><path class="cls-6" d="M220.16,253.45c0-2.91,1.91-.31,3.85-.47,3-.25-.46-1.64,3.53-1,.7.11.73.61,1.64.71.16,0,1.17-.62.77-.59a17.25,17.25,0,0,1,2.63.28,22.43,22.43,0,0,1,3,.17,6.09,6.09,0,0,0,2.72-.06c2.22-.37,4.62-.93,6.89-1.25a19,19,0,0,0,3.09-.47.38.38,0,0,0-.2-.73c-2.75.77-6.09.66-8.94,1.23a48.29,48.29,0,0,1-5.62,0c-1-.11-2.29-.15-3.29-.31-.29,0-.53.66-.79.64a25.34,25.34,0,0,1-2.47-1.42.35.35,0,0,0-.38,0c-1.54,1-1.6,1.23-4.74.86,0,0-.15-.67-.22-.67-.31,0-.12-.78-.89-.45-1.7.71-1.31,1.83-1.31,3.56a.38.38,0,0,0,.75,0Z"/><path class="cls-6" d="M253,250.82c0-.65-.34-3.23.25-3.69,2.24-1.76,1.82.82,2.6,1.26s1,.86,2.2.78c.74,0,1.44-.41,2.18-.5a15.61,15.61,0,0,1,2.9.22,3.65,3.65,0,0,0,2.83-.6c.39-.27,0-.92-.38-.64-1.36,1-2.49.36-3.91.25a21.9,21.9,0,0,0-2.32.14,1.7,1.7,0,0,1-2-.26,1.56,1.56,0,0,1-1.65-1.15c-.58-.45-.51-.89-1.29-1.06-2.52-.56-2.24,3.92-2.14,5.25,0,.48.78.48.75,0Z"/><path class="cls-6" d="M219.48,260.2c0-2.85,5.08,1.56,6,1.72,2.35.38,6.38-1.67,8.67-2.16,3.23-.69,6.83-2.54,10-1.8-.25-.06,1.64.47,2.27.58a29,29,0,0,0,9-.32c.48-.07.27-.79-.2-.72a19.35,19.35,0,0,1-9.43-.52,5.82,5.82,0,0,0-3.84-.23c-2,.55-4.43,1.85-3.83,4.12a.38.38,0,0,0,.68.09c2.15-4.56-8.5-1.08-9.52-.79-2.81.82-3.87.05-6.3-1.3-.69-.39-1.21-1.06-2.09-1-1.57,0-2.12,1-2.13,2.37a.38.38,0,0,0,.75,0Z"/><path class="cls-6" d="M221.66,267.32c1-3.55,3.2.62,4,.88a1.72,1.72,0,0,0,1.68-.41c.42-.29.64-.82,1-1.12,1.44-1.06,2.42-.62,3.89-.34a14.29,14.29,0,0,0,5,0c.48-.07.27-.8-.2-.72a16.1,16.1,0,0,1-6.18-.38c-.84-.17-1-.35-1.77-.09-2,.72-1.41,2.8-4.23,1.08-.7-.42-.81-1-1.86-1a2.27,2.27,0,0,0-2.15,1.89.38.38,0,0,0,.73.2Z"/><path class="cls-6" d="M241.32,267.18c0-.33,11.52-3.2,11.78-3.22,3.79-.27,7.26.62,10.82-1.07.43-.21.05-.86-.38-.65-3.64,1.72-7.28.65-11.08,1-2.46.22-4.37,1.46-6.92,1.12s-4.85-1-5,2.82a.38.38,0,0,0,.75,0Z"/><path class="cls-6" d="M238.89,272.37c2.43-1.47,5.52-1.14,8.31-1.19.42,0,.88.48,1.33.42,2.56-.3,4.79-1.52,7.41-1.62,2.91-.11,5.8.63,7.74-1.93.29-.39-.36-.76-.65-.38-2,2.67-6.82,1.26-9.56,1.62s-3.53.89-7.07.6a10.73,10.73,0,0,0-7.89,1.84.37.37,0,0,0,.38.64Z"/><path class="cls-6" d="M222.07,273.33c2.15-.08,4,.27,5.6-1.14,2-1.72,2.3-1,4.14-.45a3.89,3.89,0,0,0,2.19.11.38.38,0,0,0-.2-.73c-1.87.47-3.55-1.53-5.36-.82-.52.21-.57.48-1,.83a4.59,4.59,0,0,1-2.73,1.35,23.74,23.74,0,0,1-2.67.1c-.48,0-.48.77,0,.75Z"/><path class="cls-6" d="M216.49,273.21h3.95a.38.38,0,0,0,0-.75h-3.95a.38.38,0,0,0,0,.75Z"/><path class="cls-6" d="M216.66,267.75a1.49,1.49,0,0,1,2.7-1.25c.25.41.9,0,.65-.38a2.24,2.24,0,0,0-4.08,1.83c.15.46.87.27.73-.2Z"/><path class="cls-6" d="M216.82,260.72a.38.38,0,0,0,0-.75.38.38,0,0,0,0,.75Z"/><path class="cls-6" d="M216.16,254.44a1.37,1.37,0,0,1,2-1.22c.41.26.78-.38.38-.64a2.13,2.13,0,0,0-3.17,1.86c0,.48.78.48.75,0Z"/><path class="cls-6" d="M216.63,260.67a.61.61,0,0,1,.75-.62c.47.11.67-.61.2-.72a1.37,1.37,0,0,0-1.7,1.34.38.38,0,0,0,.75,0Z"/><path class="cls-6" d="M265.19,256.35c-.64-.84-1.44-.32-2.06.25l-.28.35c-.47.32-.85.3-1.12-.05-.24-.1-.44-.32-.7-.43a2.65,2.65,0,0,0-1.88,0,.37.37,0,0,0,.2.72c1-.33,1.47.16,2.31.66a1.19,1.19,0,0,0,.79.23c.48-.06,1.85-1.65,2.1-1.33s.94,0,.64-.37Z"/><path class="cls-10" d="M242.55,170.24l132.79-.38L394,169.8a.75.75,0,0,0,0-1.5l-132.8.39-18.65.05a.75.75,0,0,0,0,1.5Z"/><path class="cls-10" d="M383,161.58h11a.53.53,0,0,0,0-1.05H383a.53.53,0,0,0,0,1.05Z"/><path class="cls-10" d="M383,164.25h10a.45.45,0,0,0,0-.9H383a.45.45,0,0,0,0,.9Z"/><path class="cls-10" d="M383,166.93h10a.38.38,0,0,0,0-.75H383a.38.38,0,0,0,0,.75Z"/><path class="cls-11" d="M258,183.8v-8.75a14,14,0,0,1,11.25,10H258Z"/><path class="cls-2" d="M252.59,181.87c2.74-2.67,6.88-2.07,8.41.18,1.33,2,.8,5.35-1.8,7.29"/><path class="cls-12" d="M394,195.05H278a11.9,11.9,0,0,0,2-12,11.72,11.72,0,0,0-6-6H394Z"/><polygon class="cls-13" points="304 238.05 302.44 238.05 283 216.05 304 216.55 304 238.05"/><path class="cls-13" d="M327,262.05l66,1v11H334.42l-10.42-12Z"/><rect class="cls-14" x="318" y="225.05" width="40" height="13"/><line class="cls-15" x1="319.19" y1="245.67" x2="392" y2="245.82"/><line class="cls-15" x1="319.19" y1="249.67" x2="392" y2="249.82"/><line class="cls-15" x1="319.19" y1="253.67" x2="392" y2="253.82"/><path class="cls-3" d="M319,220.17c5.08-.39,9.8-2.87,12.16-7.55,1-2,1.86-7.14-1.89-6.91-5.8.34-2.88,18.31,6.62,14.3,2.2-.93,3.61-2.93,5-4.75a30.62,30.62,0,0,1,2.28-3q2.26-3.24,1.87-.2c.3,1.61-.31,1.32-.37,2.75-.13,3.31,1.85,5,4.88,3.15,1-.6,5.66-7.59,6.59-7.36s.8,3.65,1.61,4.49a2.88,2.88,0,0,0,2.61.9,21.23,21.23,0,0,1,2.77-1.09c1.48.22,3,.46,4.42.72l7.23,1.23c.94.16,1.35-1.29.4-1.45-3.7-.63-8.81-2.54-12.53-1.94-1.82.29-1.41,1.14-3.19-.71-1.31-1.35-1.3-2.71-2.1-4.31a.75.75,0,0,0-1.17-.16c-1.43,1.63-4.1,6.18-6.06,6.93-.64,1.14-1.22.82-1.76-1-1.1-.5-1.47-1.09-1.13-1.77-.08-.36.53-2.87.5-3.37a.76.76,0,0,0-.95-.72c-5,1.35-5.52,5.65-9.19,8.56-4.56,3.64-9.62.71-9.65-4.24-.53-1.39-.1-2.07,1.29-2.06q2.7-1.4.32,1.83A13,13,0,0,1,319,218.67c-.95.07-1,1.57,0,1.5Z"/><polygon class="cls-13" points="363.82 288.55 358.22 296.05 368.62 296.05 363.82 288.55"/><polygon class="cls-13" points="380.82 288.55 375.22 296.05 385.62 296.05 380.82 288.55"/><g class="cls-16"><path class="cls-3" d="M360.49,299.26c.25-.94,1,.07,1.31.28a1.81,1.81,0,0,0,1.08.33,25.84,25.84,0,0,0,4.43-.77c.95-.17.55-1.61-.4-1.44l-2.22.39a5.72,5.72,0,0,1-1.81.32c-.49-.14-.74-.8-1.3-1a2,2,0,0,0-2.53,1.45.75.75,0,0,0,1.44.4Z"/></g><g class="cls-16"><path class="cls-3" d="M376.6,298.62a22.51,22.51,0,0,1,6.95.18c.94.18,1.35-1.27.4-1.44a23.55,23.55,0,0,0-7.35-.24c-1,.12-1,1.62,0,1.5Z"/></g></g></g></svg>